<?xml version="1.0" encoding="utf-8"?>
<!-- Generator: Adobe Illustrator 23.0.0, SVG Export Plug-In . SVG Version: 6.00 Build 0)  -->
<svg version="1.1" id="Layer_1" xmlns="http://www.w3.org/2000/svg" xmlns:xlink="http://www.w3.org/1999/xlink" x="0px" y="0px"
	 viewBox="0 0 1024 156.86" style="enable-background:new 0 0 1024 156.86;" xml:space="preserve">
<style type="text/css">
	.st0{fill:#BE1E2D;}
	.st1{fill:url(#SVGID_1_);}
</style>
<g>
	<path class="st0" d="M763.52,124.2h-49.08V29.6h11.08v84.57h38V124.2z"/>
	<path class="st0" d="M804.82,125.79c-9.98,0-17.95-3.15-23.91-9.47c-5.96-6.31-8.94-14.68-8.94-25.1c0-11.35,3.1-20.21,9.3-26.59
		s14.58-9.57,25.13-9.57c10.07,0,17.93,3.1,23.59,9.3c5.65,6.2,8.48,14.8,8.48,25.79c0,10.78-3.05,19.41-9.14,25.89
		C823.24,122.54,815.07,125.79,804.82,125.79z M805.61,64.17c-6.95,0-12.45,2.37-16.49,7.09c-4.05,4.73-6.07,11.25-6.07,19.56
		c0,8.01,2.04,14.32,6.14,18.93c4.09,4.62,9.57,6.93,16.43,6.93c6.99,0,12.37-2.26,16.13-6.79c3.76-4.53,5.64-10.97,5.64-19.33
		c0-8.44-1.88-14.95-5.64-19.53C817.98,66.46,812.6,64.17,805.61,64.17z"/>
	<path class="st0" d="M913.41,118.79c0,24.8-11.87,37.21-35.62,37.21c-8.36,0-15.66-1.58-21.9-4.75v-10.82
		c7.61,4.22,14.87,6.33,21.77,6.33c16.62,0,24.94-8.84,24.94-26.52v-7.39h-0.26c-5.15,8.62-12.89,12.93-23.22,12.93
		c-8.4,0-15.16-3-20.29-9c-5.12-6-7.69-14.06-7.69-24.18c0-11.48,2.76-20.6,8.28-27.38c5.52-6.77,13.07-10.16,22.66-10.16
		c9.1,0,15.86,3.65,20.25,10.95h0.26v-9.37h10.82V118.79z M902.59,93.66V83.7c0-5.36-1.81-9.96-5.44-13.79
		c-3.63-3.83-8.15-5.74-13.56-5.74c-6.69,0-11.92,2.43-15.7,7.29c-3.78,4.86-5.67,11.67-5.67,20.42c0,7.52,1.81,13.54,5.44,18.04
		c3.63,4.51,8.43,6.76,14.41,6.76c6.07,0,11.01-2.15,14.81-6.46C900.68,105.91,902.59,100.39,902.59,93.66z"/>
	<path class="st0" d="M940.85,39.5c-1.94,0-3.58-0.66-4.95-1.98c-1.36-1.32-2.05-2.99-2.05-5.01c0-2.02,0.68-3.7,2.05-5.05
		c1.36-1.34,3.01-2.01,4.95-2.01c1.98,0,3.66,0.67,5.05,2.01c1.39,1.34,2.08,3.02,2.08,5.05c0,1.94-0.69,3.58-2.08,4.95
		C944.51,38.82,942.83,39.5,940.85,39.5z M946.13,124.2h-10.82V56.65h10.82V124.2z"/>
	<path class="st0" d="M1024.11,124.2h-10.82V85.68c0-14.34-5.23-21.51-15.7-21.51c-5.41,0-9.89,2.04-13.43,6.1
		c-3.54,4.07-5.31,9.2-5.31,15.4v38.53h-10.82V56.65h10.82v11.22h0.26c5.1-8.53,12.49-12.8,22.17-12.8c7.39,0,13.04,2.39,16.95,7.16
		c3.91,4.77,5.87,11.67,5.87,20.68V124.2z"/>
	<linearGradient id="SVGID_1_" gradientUnits="userSpaceOnUse" x1="0.1062" y1="77.7856" x2="696.6286" y2="77.7856">
		<stop  offset="0" style="stop-color:#EE307C"/>
		<stop  offset="1" style="stop-color:#AA2990"/>
	</linearGradient>
	<path class="st1" d="M306.35,120.38v-13.06c1.49,1.32,3.29,2.51,5.38,3.56c2.09,1.06,4.29,1.95,6.6,2.67
		c2.31,0.72,4.63,1.29,6.96,1.68c2.33,0.4,4.49,0.59,6.46,0.59c6.82,0,11.91-1.26,15.27-3.79c3.36-2.53,5.05-6.17,5.05-10.92
		c0-2.55-0.56-4.77-1.68-6.66c-1.12-1.89-2.67-3.62-4.65-5.18c-1.98-1.56-4.32-3.06-7.03-4.49c-2.7-1.43-5.62-2.94-8.74-4.52
		c-3.3-1.67-6.38-3.36-9.24-5.08s-5.34-3.61-7.45-5.67c-2.11-2.07-3.77-4.41-4.98-7.03c-1.21-2.62-1.81-5.68-1.81-9.2
		c0-4.31,0.94-8.06,2.84-11.25c1.89-3.19,4.38-5.82,7.45-7.88c3.08-2.07,6.59-3.61,10.52-4.62c3.93-1.01,7.95-1.52,12.04-1.52
		c9.32,0,16.12,1.12,20.39,3.36v12.47c-5.59-3.87-12.76-5.81-21.51-5.81c-2.42,0-4.84,0.25-7.26,0.76
		c-2.42,0.51-4.57,1.33-6.46,2.47c-1.89,1.14-3.43,2.62-4.62,4.42c-1.19,1.8-1.78,4-1.78,6.6c0,2.42,0.45,4.51,1.35,6.27
		c0.9,1.76,2.23,3.37,3.99,4.82c1.76,1.45,3.9,2.86,6.43,4.22c2.53,1.36,5.44,2.86,8.74,4.49c3.39,1.67,6.6,3.43,9.63,5.28
		c3.04,1.85,5.7,3.89,7.98,6.14c2.29,2.24,4.1,4.73,5.44,7.45c1.34,2.73,2.01,5.85,2.01,9.37c0,4.66-0.91,8.61-2.74,11.84
		c-1.82,3.23-4.29,5.86-7.39,7.88c-3.1,2.02-6.67,3.49-10.72,4.39c-4.05,0.9-8.31,1.35-12.8,1.35c-1.5,0-3.34-0.12-5.54-0.36
		c-2.2-0.24-4.44-0.59-6.73-1.06c-2.29-0.46-4.45-1.03-6.5-1.71C309.22,121.97,307.58,121.21,306.35,120.38z M386.63,39.5
		c-1.94,0-3.58-0.66-4.95-1.98c-1.36-1.32-2.05-2.99-2.05-5.01c0-2.02,0.68-3.7,2.05-5.05c1.36-1.34,3.01-2.01,4.95-2.01
		c1.98,0,3.66,0.67,5.05,2.01c1.39,1.34,2.08,3.02,2.08,5.05c0,1.94-0.69,3.58-2.08,4.95C390.29,38.82,388.61,39.5,386.63,39.5z
		 M391.91,124.2h-10.82V56.65h10.82V124.2z M509.73,124.2h-10.82V85.41c0-7.48-1.16-12.89-3.46-16.23
		c-2.31-3.34-6.19-5.01-11.64-5.01c-4.62,0-8.54,2.11-11.78,6.33c-3.23,4.22-4.85,9.28-4.85,15.17v38.53h-10.82V84.09
		c0-13.28-5.12-19.92-15.37-19.92c-4.75,0-8.67,1.99-11.74,5.97c-3.08,3.98-4.62,9.16-4.62,15.54v38.53h-10.82V56.65h10.82v10.69
		h0.26c4.79-8.18,11.79-12.27,20.98-12.27c4.62,0,8.64,1.29,12.07,3.86c3.43,2.57,5.78,5.95,7.06,10.13
		c5.01-9.32,12.49-13.99,22.43-13.99c14.87,0,22.3,9.17,22.3,27.51V124.2z M541.27,114.44H541v40.83h-10.82V56.65H541v11.88h0.26
		c5.32-8.97,13.11-13.46,23.35-13.46c8.71,0,15.5,3.02,20.38,9.07c4.88,6.05,7.32,14.15,7.32,24.31c0,11.3-2.75,20.35-8.25,27.15
		c-5.5,6.79-13.02,10.19-22.56,10.19C552.77,125.79,546.02,122,541.27,114.44z M541,87.19v9.43c0,5.59,1.81,10.32,5.44,14.22
		c3.63,3.89,8.24,5.84,13.82,5.84c6.55,0,11.69-2.51,15.4-7.52c3.72-5.01,5.57-11.98,5.57-20.91c0-7.52-1.74-13.41-5.21-17.68
		c-3.47-4.27-8.18-6.4-14.12-6.4c-6.29,0-11.35,2.19-15.17,6.56S541,80.6,541,87.19z M620.43,124.2h-10.82V24.19h10.82V124.2z
		 M696.63,93.13h-47.7c0.17,7.52,2.2,13.33,6.07,17.42c3.87,4.09,9.19,6.13,15.96,6.13c7.61,0,14.6-2.51,20.98-7.52v10.16
		c-5.94,4.31-13.79,6.46-23.55,6.46c-9.54,0-17.04-3.07-22.5-9.2c-5.45-6.13-8.18-14.77-8.18-25.89c0-10.51,2.98-19.08,8.94-25.7
		c5.96-6.62,13.36-9.93,22.2-9.93c8.84,0,15.68,2.86,20.52,8.58s7.26,13.66,7.26,23.81V93.13z M685.54,83.96
		c-0.04-6.24-1.55-11.1-4.52-14.58c-2.97-3.47-7.09-5.21-12.37-5.21c-5.1,0-9.43,1.83-13,5.48c-3.56,3.65-5.76,8.42-6.6,14.31
		H685.54z M66.82-0.04L66.77,0h0.08L66.82-0.04z M257.49,0H66.77l-2.42,2.5l-0.42,0.46c-1.83,1.92-3.75,3.75-5.66,5.5
		C43.66,21.9,26.09,32.06,7.02,37.06c-0.54,0.17-1.08,0.29-1.62,0.46L2.98,38.1l-0.54,2.42c-0.21,0.87-0.37,1.75-0.54,2.67
		c-1.17,6.16-1.79,12.49-1.79,18.78c0,20.57,6.2,40.31,17.95,57.09c10.58,15.12,24.9,26.9,41.64,34.23
		c0.42,0.21,0.87,0.42,1.33,0.58c1,0.46,2,0.83,3,1.25l1.21,0.46l0.17,0.04l0.08-0.04c0.08,0.04,0.21,0.04,0.29,0.04h191.72
		c4.16,0,7.5-3.37,7.5-7.5V7.45C264.99,3.33,261.65,0,257.49,0z M244.54,11.95l-79.83,69.58c-1.67,1.42-4.08,1.42-5.7-0.04
		l-26.03-23.07c-0.12-5.58-0.71-11.12-1.79-16.53c-0.08-0.46-0.17-0.92-0.25-1.42l-0.54-2.42l-2.42-0.62
		c-0.58-0.12-1.17-0.29-1.75-0.42c-13.24-3.54-25.78-9.58-37.06-17.45l-8.62-7.62H244.54z M137.11,77.62l-6.54,5.79
		c0.75-3.29,1.33-6.62,1.75-10.04L137.11,77.62z M65.52,147.12c-2.46-1-4.87-2.12-7.25-3.33C27.92,128.25,8.1,96.52,8.1,61.96
		c0-5.83,0.54-11.66,1.67-17.32c17.78-4.79,34.27-13.24,48.51-24.9c2.96-2.37,5.79-4.91,8.54-7.58
		c13.49,13.12,29.52,23.11,47.1,29.36c3.16,1.17,6.37,2.17,9.66,3.04c0.37,2.08,0.71,4.21,0.92,6.33c0.37,3.37,0.58,6.83,0.58,10.29
		c0,1.87-0.04,3.75-0.21,5.62c-0.54,9.24-2.5,18.24-5.7,26.69C110,117.76,90.68,137.67,65.52,147.12z M88.8,144.04
		c14.12-9.49,25.53-22.36,33.19-37.31l23.94-21.15l12.99,11.62c1.62,1.46,4.12,1.46,5.75,0l13.24-11.74l66.46,58.51L88.8,144.04z
		 M186.95,77.58l66.5-59.09l0.13,117.84L186.95,77.58z M83.47,124.92c3.16-2.33,6.16-4.96,8.83-7.79L83.47,124.92z M113.12,56.42
		c-0.21-1.67-0.46-3.33-0.75-5c-2.62-0.71-5.21-1.54-7.75-2.5c0,0-0.04,0-0.04-0.04c-0.67-0.21-1.29-0.5-1.96-0.75
		c-1.46-0.58-2.91-1.21-4.37-1.92c-1-0.46-2.04-0.92-3.04-1.46c-0.71-0.33-1.46-0.71-2.17-1.12c-2.29-1.21-4.54-2.54-6.75-3.96
		c-1.37-0.83-2.71-1.75-4-2.67c-0.13-0.04-0.21-0.13-0.29-0.21c-1.42-0.96-2.79-2-4.16-3.04c-2.71-2.08-5.33-4.29-7.87-6.62
		c-1.08-0.96-2.17-1.96-3.21-3c-2.71,2.62-5.54,5.16-8.49,7.58C47.2,40.73,34.54,47.85,20.93,51.51c-0.87,4.58-1.33,9.24-1.33,13.95
		c0,5.62,0.67,11.16,1.87,16.53c4.75,20.65,18.2,38.98,36.81,49.18c2.42,1.33,4.87,2.5,7.45,3.54c1.5-0.58,3-1.21,4.46-1.87
		c0.04,0,0.08-0.04,0.08-0.04c1.21-0.54,2.42-1.12,3.58-1.75c1.08-0.54,2.12-1.12,3.16-1.79c0.33-0.17,0.67-0.37,1-0.58
		c0.54-0.33,1.08-0.67,1.58-1c0.13-0.08,0.25-0.12,0.33-0.25c0.96-0.58,1.83-1.21,2.71-1.87c0.29-0.17,0.58-0.37,0.83-0.62
		l8.83-7.79c0.08,0,0.08,0,0.08-0.04c8.74-9.08,15.2-20.36,18.53-32.65c1.75-6.33,2.67-12.95,2.67-19.65
		C113.58,62,113.41,59.21,113.12,56.42z M70.1,99.23l-6.79,6.79h-0.04L35.17,77.91l8.62-8.7l19.53,19.53l6.79-6.79L93.8,58.21
		l8.66,8.66L70.1,99.23z"/>
</g>
</svg>
