<svg width="95" height="18" viewBox="0 0 95 18" fill="none" xmlns="http://www.w3.org/2000/svg">
<path d="M0.54 12.884C0.588 12.296 0.858 11.804 1.35 11.408C2.598 12.224 3.804 12.632 4.968 12.632C5.676 12.632 6.234 12.476 6.642 12.164C7.062 11.852 7.272 11.444 7.272 10.94C7.272 10.112 6.726 9.464 5.634 8.996L3.51 8.078C1.866 7.37 1.044 6.332 1.044 4.964C1.044 4.472 1.146 4.016 1.35 3.596C1.554 3.164 1.836 2.786 2.196 2.462C2.556 2.138 2.988 1.892 3.492 1.724C4.008 1.556 4.572 1.472 5.184 1.472C6.444 1.472 7.692 1.784 8.928 2.408C8.916 2.984 8.682 3.482 8.226 3.902C7.074 3.338 6.048 3.056 5.148 3.056C4.5 3.056 3.978 3.218 3.582 3.542C3.186 3.854 2.988 4.226 2.988 4.658C2.988 5.102 3.108 5.45 3.348 5.702C3.6 5.942 3.978 6.164 4.482 6.368L6.57 7.268C7.47 7.652 8.142 8.12 8.586 8.672C9.042 9.212 9.27 9.86 9.27 10.616C9.27 11.696 8.892 12.572 8.136 13.244C7.392 13.904 6.258 14.234 4.734 14.234C3.21 14.234 1.812 13.784 0.54 12.884ZM13.512 6.656V14C13.284 14.048 12.972 14.072 12.576 14.072C12.192 14.072 11.886 14.048 11.658 14V7.412C11.658 7.076 11.598 6.836 11.478 6.692C11.358 6.548 11.154 6.476 10.866 6.476H10.668C10.608 6.212 10.578 5.99 10.578 5.81C10.578 5.63 10.608 5.402 10.668 5.126C11.064 5.078 11.442 5.054 11.802 5.054H12.054C12.51 5.054 12.864 5.198 13.116 5.486C13.38 5.774 13.512 6.164 13.512 6.656ZM11.262 3.434C11.154 3.218 11.1 2.954 11.1 2.642C11.1 2.15 11.19 1.862 11.37 1.778C11.55 1.682 11.85 1.628 12.27 1.616C12.75 1.628 13.056 1.688 13.188 1.796C13.32 1.904 13.392 2.186 13.404 2.642C13.392 3.074 13.32 3.35 13.188 3.47C13.056 3.59 12.75 3.656 12.27 3.668C11.802 3.668 11.466 3.59 11.262 3.434ZM21.1707 8.366C21.1707 7.754 21.0807 7.316 20.9007 7.052C20.7327 6.776 20.4627 6.638 20.0907 6.638C19.4427 6.638 18.7947 7.004 18.1467 7.736V14C17.9427 14.048 17.6367 14.072 17.2287 14.072C17.0367 14.072 16.8627 14.066 16.7067 14.054C16.5507 14.042 16.4127 14.024 16.2927 14V5.162L16.4007 5.036H17.1027C17.7507 5.036 18.0927 5.414 18.1287 6.17C18.9807 5.354 19.8627 4.946 20.7747 4.946C21.6987 4.946 22.3527 5.39 22.7367 6.278C23.7207 5.39 24.6747 4.946 25.5987 4.946C26.3547 4.946 26.9307 5.21 27.3267 5.738C27.7227 6.266 27.9207 6.944 27.9207 7.772V12.092C27.9207 12.836 28.0167 13.382 28.2087 13.73C27.8727 13.994 27.4827 14.126 27.0387 14.126C26.3787 14.126 26.0487 13.73 26.0487 12.938V8.348C26.0487 7.736 25.9587 7.298 25.7787 7.034C25.6107 6.77 25.3407 6.638 24.9687 6.638C24.3207 6.638 23.6727 7.004 23.0247 7.736V14C22.9047 14.024 22.7607 14.042 22.5927 14.054C22.4367 14.066 22.2687 14.072 22.0887 14.072C21.9207 14.072 21.7527 14.066 21.5847 14.054C21.4167 14.042 21.2787 14.024 21.1707 14V8.366ZM34.5244 14.162C33.8524 14.162 33.1684 13.964 32.4724 13.568V16.682C32.4724 17.102 32.3944 17.402 32.2384 17.582C32.0944 17.774 31.8364 17.87 31.4644 17.87H30.7444L30.6364 17.762V5.144L30.7444 5.036H31.3204C31.9204 5.036 32.2864 5.342 32.4184 5.954C33.1144 5.234 33.9484 4.874 34.9204 4.874C35.4004 4.874 35.8324 4.982 36.2164 5.198C36.6004 5.414 36.9184 5.726 37.1704 6.134C37.4344 6.542 37.6324 7.034 37.7644 7.61C37.9084 8.174 37.9804 8.816 37.9804 9.536C37.9804 10.256 37.8904 10.904 37.7104 11.48C37.5304 12.056 37.2784 12.542 36.9544 12.938C36.6424 13.334 36.2764 13.64 35.8564 13.856C35.4364 14.06 34.9924 14.162 34.5244 14.162ZM34.4524 6.44C33.6724 6.44 33.0124 6.83 32.4724 7.61V12.02C32.7844 12.224 33.0844 12.386 33.3724 12.506C33.6724 12.614 33.9544 12.668 34.2184 12.668C34.7824 12.668 35.2324 12.392 35.5684 11.84C35.9164 11.288 36.0904 10.502 36.0904 9.482C36.0904 8.438 35.9344 7.67 35.6224 7.178C35.3104 6.686 34.9204 6.44 34.4524 6.44ZM42.6833 12.614H43.3493C43.4573 12.914 43.5113 13.178 43.5113 13.406C43.5113 13.634 43.4933 13.814 43.4573 13.946C42.9773 14.03 42.4673 14.072 41.9273 14.072C40.7393 14.072 40.1453 13.454 40.1453 12.218V0.877999L40.2713 0.77H40.9733C41.3453 0.77 41.6033 0.866 41.7473 1.058C41.9033 1.238 41.9813 1.538 41.9813 1.958V11.804C41.9813 12.344 42.2153 12.614 42.6833 12.614ZM51.8846 10.148H46.5926C46.6286 10.976 46.8026 11.612 47.1146 12.056C47.4386 12.5 47.9786 12.722 48.7346 12.722C49.0946 12.722 49.4786 12.668 49.8866 12.56C50.3066 12.452 50.7386 12.278 51.1826 12.038C51.4826 12.314 51.6806 12.71 51.7766 13.226C50.8166 13.898 49.6886 14.234 48.3926 14.234C47.7086 14.234 47.1326 14.114 46.6646 13.874C46.1966 13.634 45.8126 13.304 45.5126 12.884C45.2246 12.464 45.0146 11.966 44.8826 11.39C44.7506 10.802 44.6846 10.172 44.6846 9.5C44.6846 8.84 44.7686 8.228 44.9366 7.664C45.1046 7.088 45.3446 6.596 45.6566 6.188C45.9686 5.78 46.3526 5.462 46.8086 5.234C47.2766 4.994 47.7986 4.874 48.3746 4.874C48.9506 4.874 49.4606 4.97 49.9046 5.162C50.3606 5.354 50.7446 5.624 51.0566 5.972C51.3686 6.308 51.6026 6.716 51.7586 7.196C51.9266 7.664 52.0106 8.174 52.0106 8.726C52.0106 8.966 51.9986 9.206 51.9746 9.446C51.9626 9.674 51.9326 9.908 51.8846 10.148ZM48.4286 6.26C47.2886 6.26 46.6766 7.106 46.5926 8.798H50.2286V8.564C50.2286 7.88 50.0786 7.328 49.7786 6.908C49.4906 6.476 49.0406 6.26 48.4286 6.26ZM58.0406 12.344H61.6226C61.6226 12.608 61.6046 12.86 61.5686 13.1C61.4606 13.712 61.0466 14.018 60.3266 14.018H55.6286C55.2926 14.018 55.0226 13.916 54.8186 13.712C54.6146 13.496 54.5126 13.202 54.5126 12.83V1.742L54.6386 1.634H55.3586C55.7546 1.634 56.0306 1.73 56.1866 1.922C56.3546 2.114 56.4386 2.426 56.4386 2.858V12.416C56.9306 12.368 57.4646 12.344 58.0406 12.344ZM69.1123 13.244C68.4523 13.904 67.5823 14.234 66.5023 14.234C65.8783 14.234 65.3263 14.126 64.8463 13.91C64.3663 13.682 63.9583 13.364 63.6223 12.956C63.2983 12.536 63.0463 12.044 62.8663 11.48C62.6983 10.904 62.6143 10.262 62.6143 9.554C62.6143 8.858 62.6983 8.222 62.8663 7.646C63.0463 7.07 63.2983 6.578 63.6223 6.17C63.9583 5.75 64.3663 5.432 64.8463 5.216C65.3263 4.988 65.8783 4.874 66.5023 4.874C67.1263 4.874 67.6783 4.988 68.1583 5.216C68.6383 5.432 69.0403 5.75 69.3643 6.17C69.7003 6.578 69.9523 7.07 70.1203 7.646C70.3003 8.222 70.3903 8.858 70.3903 9.554C70.3903 11.162 69.9643 12.392 69.1123 13.244ZM66.5023 6.296C65.1943 6.296 64.5403 7.382 64.5403 9.554C64.5403 11.726 65.1943 12.812 66.5023 12.812C67.8223 12.812 68.4823 11.726 68.4823 9.554C68.4823 7.382 67.8223 6.296 66.5023 6.296ZM77.8698 5.81C78.1338 5.39 78.5478 5.114 79.1118 4.982C79.2558 5.078 79.3938 5.222 79.5258 5.414C79.6698 5.606 79.7598 5.78 79.7958 5.936C79.4598 6.26 79.2918 6.83 79.2918 7.646V12.974C79.2918 13.898 79.2138 14.678 79.0578 15.314C78.9138 15.95 78.6858 16.46 78.3738 16.844C78.0618 17.24 77.6658 17.522 77.1858 17.69C76.7058 17.87 76.1298 17.96 75.4578 17.96C74.3898 17.96 73.3518 17.762 72.3438 17.366C72.3558 16.79 72.5178 16.322 72.8298 15.962C73.5858 16.334 74.4018 16.52 75.2778 16.52C76.1298 16.52 76.7118 16.298 77.0238 15.854C77.3358 15.422 77.4918 14.81 77.4918 14.018V13.19C76.7838 13.838 75.9498 14.162 74.9898 14.162C74.0418 14.162 73.2978 13.748 72.7578 12.92C72.2298 12.092 71.9658 10.952 71.9658 9.5C71.9658 8.768 72.0558 8.12 72.2358 7.556C72.4158 6.98 72.6678 6.494 72.9918 6.098C73.3158 5.702 73.6818 5.402 74.0898 5.198C74.5098 4.982 74.9538 4.874 75.4218 4.874C76.3818 4.874 77.1978 5.186 77.8698 5.81ZM77.4918 11.552V7.178C76.8918 6.638 76.3038 6.368 75.7278 6.368C75.1518 6.368 74.6958 6.638 74.3598 7.178C74.0238 7.718 73.8558 8.516 73.8558 9.572C73.8558 10.616 74.0058 11.384 74.3058 11.876C74.6058 12.368 74.9958 12.614 75.4758 12.614C76.2198 12.614 76.8918 12.26 77.4918 11.552ZM84.1409 6.656V14C83.9129 14.048 83.6009 14.072 83.2049 14.072C82.8209 14.072 82.5149 14.048 82.2869 14V7.412C82.2869 7.076 82.2269 6.836 82.1069 6.692C81.9869 6.548 81.7829 6.476 81.4949 6.476H81.2969C81.2369 6.212 81.2069 5.99 81.2069 5.81C81.2069 5.63 81.2369 5.402 81.2969 5.126C81.6929 5.078 82.0709 5.054 82.4309 5.054H82.6829C83.1389 5.054 83.4929 5.198 83.7449 5.486C84.0089 5.774 84.1409 6.164 84.1409 6.656ZM81.8909 3.434C81.7829 3.218 81.7289 2.954 81.7289 2.642C81.7289 2.15 81.8189 1.862 81.9989 1.778C82.1789 1.682 82.4789 1.628 82.8989 1.616C83.3789 1.628 83.6849 1.688 83.8169 1.796C83.9489 1.904 84.0209 2.186 84.0329 2.642C84.0209 3.074 83.9489 3.35 83.8169 3.47C83.6849 3.59 83.3789 3.656 82.8989 3.668C82.4309 3.668 82.0949 3.59 81.8909 3.434ZM94.0136 7.898V12.092C94.0136 12.8 94.1156 13.346 94.3196 13.73C94.0076 13.994 93.6416 14.126 93.2216 14.126C92.8136 14.126 92.5316 14.03 92.3756 13.838C92.2316 13.634 92.1596 13.334 92.1596 12.938V8.366C92.1596 7.742 92.0756 7.298 91.9076 7.034C91.7516 6.77 91.4756 6.638 91.0796 6.638C90.6836 6.638 90.2756 6.74 89.8556 6.944C89.4476 7.136 89.0876 7.406 88.7756 7.754V14C88.5716 14.048 88.2656 14.072 87.8576 14.072C87.6656 14.072 87.4916 14.066 87.3356 14.054C87.1796 14.042 87.0416 14.024 86.9216 14V5.144L87.0296 5.036H87.7316C88.3796 5.036 88.7216 5.408 88.7576 6.152C89.6336 5.348 90.5876 4.946 91.6196 4.946C92.4236 4.946 93.0236 5.216 93.4196 5.756C93.8156 6.284 94.0136 6.998 94.0136 7.898Z" fill="#5675E2"/>
</svg>
